<?xml version="1.0" standalone="no"?><!DOCTYPE svg PUBLIC "-//W3C//DTD SVG 1.1//EN" "http://www.w3.org/Graphics/SVG/1.1/DTD/svg11.dtd"><svg t="1741703762435" class="icon" viewBox="0 0 1024 1024" version="1.1" xmlns="http://www.w3.org/2000/svg" p-id="5884" xmlns:xlink="http://www.w3.org/1999/xlink" width="200" height="200"><path d="M185.6 403.2c6.4 0 6.4 0 12.8 0C243.2 384 275.2 358.4 300.8 332.8L320 332.8l32 64C358.4 409.6 371.2 416 384 416c6.4 0 12.8 0 12.8-6.4C416 403.2 422.4 384 409.6 371.2L390.4 332.8l115.2 0c19.2 0 32-12.8 32-32S524.8 268.8 505.6 268.8L345.6 268.8c12.8-25.6 19.2-38.4 19.2-38.4C364.8 211.2 358.4 192 339.2 185.6 320 179.2 307.2 192 300.8 211.2c0 0-25.6 96-121.6 134.4C160 352 153.6 364.8 160 384 166.4 396.8 172.8 403.2 185.6 403.2z" p-id="5885"></path><path d="M870.4 300.8c0-19.2-12.8-32-32-32l-160 0c12.8-25.6 19.2-38.4 19.2-38.4 6.4-19.2-6.4-32-25.6-38.4C652.8 179.2 633.6 192 627.2 211.2c0 0-25.6 96-121.6 134.4-6.4 0-12.8 6.4-12.8 12.8-12.8 0-25.6 6.4-25.6 19.2 0 0-44.8 115.2-275.2 153.6-19.2 0-32 19.2-25.6 38.4 0 12.8 19.2 25.6 32 25.6 0 0 6.4 0 6.4 0C236.8 588.8 268.8 576 294.4 569.6c0 12.8 12.8 25.6 32 25.6L448 595.2c-6.4 0-6.4 0-12.8 6.4-12.8 12.8-12.8 32 0 44.8 0 0 38.4 44.8 51.2 108.8 0 6.4 6.4 12.8 12.8 19.2L377.6 774.4C384 768 390.4 755.2 390.4 742.4c-19.2-83.2-64-140.8-70.4-140.8-12.8-12.8-32-12.8-44.8 0-12.8 12.8-12.8 32 0 44.8 0 0 38.4 44.8 51.2 108.8 0 6.4 6.4 12.8 12.8 19.2L198.4 774.4c-19.2 0-32 12.8-32 32s12.8 32 32 32l627.2 0c19.2 0 32-12.8 32-32s-12.8-32-32-32l-128 0c51.2-70.4 57.6-140.8 57.6-147.2 0-19.2-12.8-32-32-32-19.2 0-32 12.8-32 32 0 0-6.4 83.2-76.8 153.6L537.6 780.8c6.4-6.4 12.8-19.2 12.8-32-19.2-83.2-64-140.8-70.4-140.8C480 601.6 473.6 595.2 467.2 595.2l204.8 0c12.8 0 25.6-12.8 32-25.6 32 12.8 64 19.2 102.4 25.6 0 0 6.4 0 6.4 0 12.8 0 32-12.8 32-25.6 0-19.2-6.4-32-25.6-38.4C633.6 499.2 569.6 416 550.4 390.4c32-19.2 57.6-38.4 76.8-57.6l19.2 0 32 64c6.4 12.8 19.2 19.2 25.6 19.2 6.4 0 12.8 0 12.8-6.4 12.8-6.4 19.2-25.6 12.8-44.8l-19.2-38.4 115.2 0C851.2 332.8 870.4 313.6 870.4 300.8zM620.8 531.2 390.4 531.2c64-32 96-70.4 115.2-102.4C524.8 460.8 556.8 499.2 620.8 531.2z" p-id="5886"></path></svg>